<?xml version="1.0" encoding="UTF-8" standalone="no"?>
<!-- Created with Inkscape (http://www.inkscape.org/) -->

<svg
   width="100mm"
   height="25mm"
   viewBox="0 0 100 25"
   version="1.1"
   id="svg1"
   xml:space="preserve"
   inkscape:version="1.3 (0e150ed, 2023-07-21)"
   sodipodi:docname="peprs_logo.svg"
   xmlns:inkscape="http://www.inkscape.org/namespaces/inkscape"
   xmlns:sodipodi="http://sodipodi.sourceforge.net/DTD/sodipodi-0.dtd"
   xmlns="http://www.w3.org/2000/svg"
   xmlns:svg="http://www.w3.org/2000/svg"><sodipodi:namedview
     id="namedview1"
     pagecolor="#ffffff"
     bordercolor="#000000"
     borderopacity="0.25"
     inkscape:showpageshadow="2"
     inkscape:pageopacity="0.0"
     inkscape:pagecheckerboard="0"
     inkscape:deskcolor="#d1d1d1"
     inkscape:document-units="mm"
     inkscape:zoom="3.2695483"
     inkscape:cx="97.566995"
     inkscape:cy="107.35428"
     inkscape:window-width="2560"
     inkscape:window-height="1381"
     inkscape:window-x="0"
     inkscape:window-y="905"
     inkscape:window-maximized="0"
     inkscape:current-layer="layer1" /><defs
     id="defs1" /><g
     inkscape:label="Layer 1"
     inkscape:groupmode="layer"
     id="layer1"><g
       id="010---Hot-Chilli"
       style="fill:none;fill-rule:evenodd"
       transform="matrix(0.44426297,0,0,0.44426297,0.83965116,0.29118113)"><path
         id="Path"
         d="M 57.93,36.75 C 51.542623,47.412207 39.781179,53.666247 27.37,53 12.17,52.32 9.12,46.16 9.7,41.31 c 0.1910144,-1.746298 0.851005,-3.408368 1.91,-4.81 0.131127,-0.179724 0.278406,-0.347087 0.44,-0.5 0.971589,-0.980219 2.186474,-1.6843 3.52,-2.04 2.93,-0.78 6.17,0.19 9.15,1.39 7.03,2.82 13.9,4.51 22.14,3.59 0.6,-0.07 1.2,-0.15 1.81,-0.26 2.970602,-0.486237 5.86288,-1.367373 8.6,-2.62 0.196011,-0.09747 0.432638,-0.05611 0.583953,0.102088 0.151315,0.158193 0.182131,0.396424 0.07605,0.587912 z"
         fill="#c03a2b" /><path
         id="path1"
         d="M 27.546,50 H 27.5 c -7.212,-0.321 -12.2,-2.028 -14.042,-4.8 -0.895697,-1.352678 -1.060599,-3.062045 -0.44,-4.561 0.117216,-0.344089 0.41192,-0.597471 0.769694,-0.661771 0.357774,-0.0643 0.722263,0.07061 0.951955,0.35235 0.229693,0.281741 0.288408,0.665936 0.153351,1.003421 -0.398313,0.899601 -0.31126,1.940092 0.231,2.761 1.459,2.2 6,3.625 12.466,3.913 0.552285,0.01215 0.99015,0.469715 0.978,1.022 -0.01215,0.552285 -0.469715,0.99015 -1.022,0.978 z"
         fill="#e64c3c" /><path
         id="path2"
         d="M 11.61,36.5 C 10.551005,37.901632 9.8910144,39.563702 9.7,41.31 6.3050583,39.959587 3.2269516,37.920001 0.66,35.32 -0.27822012,34.252144 -0.18136243,32.627882 0.87711404,31.679092 1.9355905,30.730303 3.5607343,30.811008 4.52,31.86 c 2.0267544,1.98912 4.4258489,3.559066 7.06,4.62 z"
         fill="#24ae5f" /><path
         id="path3"
         d="m 48.67,38.68 c -0.61,0.11 -1.21,0.19 -1.81,0.26 -8.24,0.92 -15.11,-0.77 -22.14,-3.59 -2.98,-1.2 -6.22,-2.17 -9.15,-1.39 -0.871,-3.994 -1.1,-9.264 1.894,-13.573 0.255627,-0.349321 0.706984,-0.494515 1.118334,-0.359751 0.41135,0.134764 0.689294,0.518888 0.688666,0.951751 C 19.237,23.6 19.9,27 23.59,27 c 6,0 2,-11 1,-14 C 23.279486,8.4471644 24.77949,3.5498979 28.415,0.512 28.740817,0.24290875 29.20061,0.2076634 29.563633,0.42395176 29.926657,0.64024011 30.114542,1.0613706 30.033,1.476 29.192,5.736 28.137,14 32.59,14 c 2.066,0 2.826,-1.421 2.936,-3.287 0.03516,-0.400561 0.306828,-0.7410989 0.689562,-0.8643857 0.382735,-0.1232868 0.802087,-0.00534 1.064438,0.2993857 1.723238,1.839193 2.533877,4.352543 2.21,6.852 -1,7 -3,11 0,12 2.272,0.757 4.1,-2.236 4.24,-5.508 0.01322,-0.405521 0.270152,-0.762861 0.65036,-0.904507 0.380208,-0.141646 0.808318,-0.03952 1.08364,0.258507 3.952203,4.25979 5.189839,10.372306 3.206,15.834 z"
         fill="#f29c1f" /></g><text
       xml:space="preserve"
       style="font-size:19.7556px;line-height:1;font-family:Zapfino;-inkscape-font-specification:Zapfino;stroke-width:0.264583;font-weight:normal;font-style:normal;font-stretch:normal;font-variant:normal"
       x="29.375231"
       y="19.208498"
       id="text1"><tspan
         sodipodi:role="line"
         id="tspan1"
         style="font-style:normal;font-variant:normal;font-weight:normal;font-stretch:normal;font-size:19.7556px;font-family:Zapfino;-inkscape-font-specification:Zapfino;stroke-width:0.264583"
         x="29.375231"
         y="19.208498">PEPRS</tspan></text></g></svg>
